<?xml version="1.0" encoding="UTF-8"?>
<!-- Generated by Pixelmator Pro 3.6.18 -->
<svg width="1024" height="1024" viewBox="0 0 1024 1024" xmlns="http://www.w3.org/2000/svg">
    <g id="Group">
        <g id="g1">
            <path id="Path" fill="#ffffff" fill-rule="evenodd" stroke="none" d="M 225 0 L 799 0 C 923.264099 0 1024 100.735962 1024 225 L 1024 799 C 1024 923.264099 923.264099 1024 799 1024 L 225 1024 C 100.735931 1024 0 923.264099 0 799 L 0 225 C -0 100.735962 100.735931 0 225 0 Z"/>
        </g>
        <g id="g2">
            <linearGradient id="linearGradient1" x1="429.6" y1="239" x2="320.4" y2="785" gradientUnits="userSpaceOnUse">
                <stop offset="1e-05" stop-color="#ffca28" stop-opacity="1"/>
                <stop offset="1" stop-color="#ff3d6e" stop-opacity="1"/>
            </linearGradient>
            <path id="path1" fill="url(#linearGradient1)" fill-rule="evenodd" stroke="none" opacity="0.85" d="M 648 512 C 648 662.773743 525.773743 785 375 785 C 224.226257 785 102 662.773743 102 512 C 102 361.226257 224.226257 239 375 239 C 525.773743 239 648 361.226257 648 512 Z"/>
            <linearGradient id="linearGradient2" x1="593.4" y1="785" x2="702.6" y2="239" gradientUnits="userSpaceOnUse">
                <stop offset="1e-05" stop-color="#ffca28" stop-opacity="1"/>
                <stop offset="1" stop-color="#ff3d6e" stop-opacity="1"/>
            </linearGradient>
            <path id="path2" fill="url(#linearGradient2)" fill-rule="evenodd" stroke="none" opacity="0.85" d="M 921 512 C 921 662.773743 798.773743 785 648 785 C 497.226257 785 375 662.773743 375 512 C 375 361.226257 497.226257 239 648 239 C 798.773743 239 921 361.226257 921 512 Z"/>
            <g id="g3">
                <g id="g4">
                    <path id="path3" fill="#ffffff" fill-rule="evenodd" stroke="#ffffff" stroke-width="33.578999" stroke-linejoin="round" d="M 454.716003 429.917969 L 603.955994 512 L 454.716003 594.082031 Z"/>
                </g>
            </g>
        </g>
    </g>
</svg>
