<?xml version="1.0" encoding="UTF-8"?>
<!-- Generated by Pixelmator Pro 3.6.18 -->
<svg width="1024" height="1024" viewBox="0 0 1024 1024" xmlns="http://www.w3.org/2000/svg">
    <g id="Group">
        <g id="g1">
            <linearGradient id="linearGradient1" x1="422" y1="212" x2="302" y2="812" gradientUnits="userSpaceOnUse">
                <stop offset="1e-05" stop-color="#ffca28" stop-opacity="1"/>
                <stop offset="1" stop-color="#ff3d6e" stop-opacity="1"/>
            </linearGradient>
            <path id="Path" fill="url(#linearGradient1)" fill-rule="evenodd" stroke="none" opacity="0.85" d="M 662 512 C 662 677.685425 527.685425 812 362 812 C 196.314575 812 62 677.685425 62 512 C 62 346.314575 196.314575 212 362 212 C 527.685425 212 662 346.314575 662 512 Z"/>
            <linearGradient id="linearGradient2" x1="602" y1="812" x2="722" y2="212" gradientUnits="userSpaceOnUse">
                <stop offset="1e-05" stop-color="#ffca28" stop-opacity="1"/>
                <stop offset="1" stop-color="#ff3d6e" stop-opacity="1"/>
            </linearGradient>
            <path id="path1" fill="url(#linearGradient2)" fill-rule="evenodd" stroke="none" opacity="0.85" d="M 962 512 C 962 677.685425 827.685425 812 662 812 C 496.314575 812 362 677.685425 362 512 C 362 346.314575 496.314575 212 662 212 C 827.685425 212 962 346.314575 962 512 Z"/>
            <g id="g2">
                <g id="g3">
                    <path id="path2" fill="#ffffff" fill-rule="evenodd" stroke="#ffffff" stroke-width="36.900002" stroke-linejoin="round" d="M 449.600006 421.799988 L 613.599976 512 L 449.600006 602.200012 Z"/>
                </g>
            </g>
        </g>
    </g>
</svg>
